PathFileType	4	(X/Y/Z)	C:\Users\°ÂÌØÂü\Desktop\20201223\Trimmed_bx_n_0_901.trc
DataRate	CameraRate	NumFrames	NumMarkers	Units	OrigDataRate	OrigDataStartFrame	OrigNumFrames
50.00	50.00	       5	43	mm	50.00	367	       978
Frame#	Time	Top.Head			R.Acromium			L.Acromium			Sternum			R.ASIS			L.ASIS			V.Sacral			R.Thigh.Upper			R.Thigh.Front			R.Thigh.Rear			R.Knee.Lat			R.Knee.Med			R.Shank.Upper			R.Shank.Front			R.Shank.Rear			R.Ankle.Lat			R.Midfoot.Lat			R.Toe.Lat			R.Toe.Tip			R.Toe.Med			R.Ankle.Med			R.Midfoot.Sup			R.Heel			L.Thigh.Upper			L.Thigh.Front			L.Thigh.Rear			L.Knee.Lat			L.Knee.Med			L.Shank.Upper			L.Shank.Front			L.Shank.Rear			L.Ankle.Lat			L.Midfoot.Lat			L.Toe.Lat			L.Toe.Tip			L.Toe.Med			L.Ankle.Med			L.Midfoot.Sup			L.Heel			origin1 front left			origin2 front right			origin 3 back right			origin 4 back leftt			
		X1	Y1	Z1	X2	Y2	Z2	X3	Y3	Z3	X4	Y4	Z4	X5	Y5	Z5	X6	Y6	Z6	X7	Y7	Z7	X8	Y8	Z8	X9	Y9	Z9	X10	Y10	Z10	X11	Y11	Z11	X12	Y12	Z12	X13	Y13	Z13	X14	Y14	Z14	X15	Y15	Z15	X16	Y16	Z16	X17	Y17	Z17	X18	Y18	Z18	X19	Y19	Z19	X20	Y20	Z20	X21	Y21	Z21	X22	Y22	Z22	X23	Y23	Z23	X24	Y24	Z24	X25	Y25	Z25	X26	Y26	Z26	X27	Y27	Z27	X28	Y28	Z28	X29	Y29	Z29	X30	Y30	Z30	X31	Y31	Z31	X32	Y32	Z32	X33	Y33	Z33	X34	Y34	Z34	X35	Y35	Z35	X36	Y36	Z36	X37	Y37	Z37	X38	Y38	Z38	X39	Y39	Z39	X40	Y40	Z40	X41	Y41	Z41	X42	Y42	Z42	X43	Y43	Z43	

367	7.320	-689.33954	252.22392	1828.34497	-631.84894	70.04662	1532.94958	-626.07086	433.35709	1529.94995	-521.32324	248.80231	1363.05542	-542.42047	125.04388	1037.60889	-509.56802	345.82526	1035.21973	-728.20844	254.00633	1062.17505	-628.24524	77.15401	834.18408	-538.29401	125.43460	798.67169	-645.24445	93.28098	720.26715	-664.90717	113.90491	601.90662	-640.88245	220.52245	558.37524	-692.55597	114.47404	538.32977	-614.36963	164.14427	524.68231	-701.32153	106.72916	487.19336	-690.41174	139.01735	212.70311	-615.95953	78.91901	167.79987	-570.54321	56.99486	164.44971	-494.28070	97.10952	160.49525	-535.86774	149.16490	162.16849	-641.62439	216.33896	220.54874	-598.23236	189.41084	169.79787	-725.86389	205.25615	168.93144	-600.76135	437.67667	856.98743	-522.78534	382.22372	814.70239	-626.76300	428.89798	741.22992	-648.77557	412.45740	605.40515	-635.52344	304.71786	550.05359	-666.19922	416.67114	559.26147	-609.53271	360.96692	533.78265	-718.71985	422.46219	496.23151	-675.95959	420.44461	215.65747	-578.91559	464.44266	165.52800	-540.54144	474.96027	159.41425	-484.07031	419.69342	167.49890	-525.06012	381.19498	176.45291	-647.26721	326.04684	208.91847	-596.73767	345.55670	169.85612	-735.07764	354.76474	161.65901	-443.77112	448.58893	146.80838	-450.39651	74.99172	143.20085	-806.16418	82.06836	141.39957	-800.03088	456.39413	144.72539	
368	7.340	-689.60437	251.95688	1828.34021	-632.15955	69.82199	1532.88855	-626.24951	433.16605	1530.00000	-521.50159	248.61591	1363.11816	-542.63141	124.90729	1037.61536	-509.65509	345.67996	1035.23950	-728.35413	253.93884	1062.14587	-628.37805	77.11624	834.18427	-538.44037	125.34013	798.67914	-645.39044	93.31150	720.17389	-665.04755	113.79604	601.95203	-640.98486	220.50003	558.41833	-692.59259	114.41663	538.31519	-614.51044	164.08752	524.60577	-701.39343	106.71539	487.17017	-690.43011	139.01566	212.67902	-615.97949	78.90646	167.80652	-570.56665	57.01082	164.39529	-494.26465	97.09695	160.50278	-535.86853	149.15733	162.16396	-641.68207	216.31618	220.52895	-598.21869	189.39517	169.81496	-725.84741	205.23018	168.93893	-600.88336	437.58774	857.04517	-522.95087	382.01147	814.74127	-626.81323	428.84900	741.24078	-648.78290	412.37054	605.42914	-635.72833	304.66031	550.80609	-666.23376	416.69638	559.31207	-609.54828	360.91791	533.88153	-718.79773	422.38968	496.26425	-675.95667	420.42276	215.66812	-578.92120	464.45425	165.52686	-540.53253	474.95862	159.41679	-484.05295	419.71005	167.48433	-525.07660	381.19443	176.46909	-647.24280	326.04089	208.89577	-596.72668	345.54279	169.84309	-735.09106	354.75830	161.66669	-443.75684	448.60941	146.77423	-450.40619	75.00976	143.21181	-806.16553	82.06109	141.44124	-800.01624	456.37573	144.72885	
369	7.360	-689.82434	251.70975	1828.34192	-632.46136	69.61736	1532.84155	-626.43982	432.97733	1530.03760	-521.74609	248.38358	1363.12952	-542.82928	124.81172	1037.61230	-509.79401	345.50574	1035.26062	-728.50494	253.87912	1062.09570	-628.52106	77.07455	834.20673	-538.60791	125.21678	798.70374	-645.53973	93.31959	720.09912	-665.16809	113.72358	601.97797	-641.06146	220.48140	558.43408	-692.62939	114.33772	538.31952	-614.65283	164.03102	524.53986	-701.42432	106.67918	487.16995	-690.43811	139.00241	212.67690	-616.03223	78.88976	167.78970	-570.57715	57.05124	164.35405	-494.24420	97.09454	160.50237	-535.86530	149.14546	162.14514	-641.72723	216.29825	220.50284	-598.20190	189.38461	169.82471	-725.82867	205.20680	168.94321	-600.97144	437.48758	857.10248	-523.09668	381.78180	814.77222	-626.86414	428.81363	741.27576	-648.80664	412.30350	605.47046	-635.93329	304.60126	551.55475	-666.25562	416.70786	559.35510	-609.56036	360.89319	533.97131	-718.90771	422.30341	496.28763	-675.94128	420.40100	215.68230	-578.92914	464.46716	165.52655	-540.52789	474.95874	159.41698	-484.04965	419.72253	167.47026	-525.08759	381.19873	176.47141	-647.21381	326.05710	208.88371	-596.69366	345.51221	169.82668	-735.09253	354.76059	161.67758	-443.75232	448.62872	146.72873	-450.41052	75.00951	143.22997	-806.15485	82.05056	141.48566	-800.01300	456.35977	144.71510	
370	7.380	-690.00867	251.47850	1828.35828	-632.75977	69.44632	1532.80310	-626.64026	432.79007	1530.06506	-522.04742	248.11943	1363.08679	-543.03107	124.74880	1037.60547	-509.97980	345.31415	1035.29150	-728.68201	253.80986	1062.04895	-628.68658	77.01582	834.24829	-538.79431	125.07283	798.73132	-645.68524	93.27370	720.06384	-665.27417	113.67611	601.97864	-641.11115	220.46092	558.41974	-692.66693	114.25051	538.32745	-614.76813	163.98610	524.50854	-701.43561	106.61591	487.19269	-690.44153	138.98607	212.68486	-616.09662	78.87303	167.76172	-570.57465	57.09964	164.33900	-494.22720	97.09946	160.49294	-535.86047	149.12953	162.12006	-641.75244	216.28802	220.48045	-598.18884	189.38370	169.82143	-725.81116	205.19292	168.93967	-601.04370	437.37531	857.15039	-523.22284	381.55566	814.79773	-626.93445	428.76993	741.33368	-648.85773	412.24579	605.51263	-636.13806	304.54074	552.29840	-666.26282	416.70630	559.39209	-609.56775	360.88733	534.04321	-719.03705	422.20758	496.29977	-675.91583	420.38834	215.70142	-578.93579	464.47803	165.52792	-540.52838	474.95947	159.42059	-484.06076	419.72592	167.46260	-525.08954	381.20691	176.46233	-647.19409	326.08563	208.87961	-596.64594	345.47226	169.81152	-735.08398	354.76898	161.68695	-443.76523	448.64783	146.68770	-450.41373	74.99781	143.25612	-806.13733	82.03746	141.51414	-800.01855	456.35327	144.69080	
371	7.400	-690.17493	251.25195	1828.39001	-633.05219	69.30821	1532.76563	-626.84711	432.60767	1530.08887	-522.36993	247.86508	1363.00146	-543.24615	124.71083	1037.59802	-510.19086	345.12198	1035.33533	-728.89520	253.71426	1062.03259	-628.87439	76.93047	834.30225	-538.99219	124.93032	798.75012	-645.82397	93.15176	720.08588	-665.37750	113.63976	601.95245	-641.12970	220.43314	558.39154	-692.70630	114.17482	538.32220	-614.84497	163.95644	524.51855	-701.45068	106.54513	487.21780	-690.44482	138.97629	212.68689	-616.15088	78.86162	167.73938	-570.56567	57.13338	164.34480	-494.22092	97.10323	160.47665	-535.85962	149.11356	162.09943	-641.76141	216.28366	220.46863	-598.18494	189.39302	169.80521	-725.79474	205.18460	168.92773	-601.12024	437.25461	857.18762	-523.34167	381.35965	814.82300	-627.04041	428.69946	741.40869	-648.94165	412.17380	605.53180	-636.34235	304.47873	553.03595	-666.26080	416.69812	559.42950	-609.56757	360.89389	534.10101	-719.16174	422.10983	496.29980	-675.89264	420.38721	215.72485	-578.93744	464.48560	165.53064	-540.53235	474.96167	159.43335	-484.08200	419.72150	167.46248	-525.07825	381.21432	176.44537	-647.19348	326.10825	208.87344	-596.60522	345.43787	169.80023	-735.07190	354.77771	161.69055	-443.79764	448.66516	146.66371	-450.42120	74.98773	143.28763	-806.12280	82.02624	141.51385	-800.02155	456.36505	144.67360	
